<svg id="Layer_1" data-name="Layer 1" xmlns="http://www.w3.org/2000/svg" xmlns:xlink="http://www.w3.org/1999/xlink" viewBox="0 0 182.075 70.138"><defs><style>.cls-1{fill:url(#linear-gradient);}.cls-2{fill:#bf080f;}</style><linearGradient id="linear-gradient" x1="31.276" y1="95.037" x2="26.859" y2="133.402" gradientUnits="userSpaceOnUse"><stop offset="0" stop-color="#bf0010"/><stop offset="0.421" stop-color="#9b000a"/><stop offset="0.778" stop-color="#840006"/><stop offset="1" stop-color="#7b0004"/></linearGradient></defs><title>miml</title><path class="cls-1" d="M48.422,99.315a2.437,2.437,0,0,0-1.863-.978l-0.068-.016c0.08-.081.162-0.163,0.244-0.243a5.726,5.726,0,0,0,1.2-1.474,1.126,1.126,0,0,0,0-1.024,1.9,1.9,0,0,0-1.55-.806l0.141-.141a5.252,5.252,0,0,0,1.1-1.376,1.15,1.15,0,0,0-.009-1.062,2.171,2.171,0,0,0-1.823-.812l-0.13-.016a10.644,10.644,0,0,0,.178-1.124,4.858,4.858,0,0,1,.281-1.348,1.465,1.465,0,0,0,.035-1.279c-0.4-.856-1.515-1.138-2.7-1.436-0.312-.079-0.751-0.19-1.087-0.3a2.422,2.422,0,0,0,.471-0.105,2.085,2.085,0,0,0,1.216-1.087,1.788,1.788,0,0,0,.023-1.644c-0.692-1.382-3-1.886-6.71-2.591-1.834-.349-5.247-1-5.545-1.636a0.444,0.444,0,0,1,.047-0.111c0.328-.2,1.841.433,2.569,0.734,1.8,0.744,4.035,1.671,4.95-.2a1.587,1.587,0,0,0,.015-1.445c-0.57-1.115-2.415-1.435-4.55-1.805-0.695-.121-1.707-0.3-2.386-0.493,0.3-.005.63,0.005,0.861,0.016,1.108,0.044,2.485.1,3.034-1.023a1.267,1.267,0,0,0,.005-1.148c-0.4-.789-1.492-0.988-2.755-1.22-0.24-.044-0.563-0.1-0.847-0.166,0.087-.1.179-0.194,0.27-0.292a6.022,6.022,0,0,0,1.087-1.411,1.162,1.162,0,0,0-.019-1.112,1.519,1.519,0,0,0-1.272-.655l0.194-.245a8.4,8.4,0,0,0,1.024-1.5,1.039,1.039,0,0,0,.005-0.912,1.928,1.928,0,0,0-1.5-.832c-0.093-.021-0.22-0.05-0.329-0.077a0.935,0.935,0,0,0-1.585.155,1.042,1.042,0,0,0-.005.914,1.6,1.6,0,0,0,1.192.76c-0.085.109-.172,0.22-0.262,0.333a8.1,8.1,0,0,0-.987,1.444,1.163,1.163,0,0,0,.019,1.114,1.454,1.454,0,0,0,1.177.645l-0.1.1A5.724,5.724,0,0,0,30.65,71.7a1.225,1.225,0,0,0,0,1.1,1.874,1.874,0,0,0,1.256.864,2.04,2.04,0,0,0-1.721,1.085,1.5,1.5,0,0,0-.011,1.366,1.984,1.984,0,0,0,.938.854,2.033,2.033,0,0,0-.965,2.652A2.982,2.982,0,0,0,31.6,80.87a2.137,2.137,0,0,0-1.04,1.03,1.082,1.082,0,0,0,.644,1.537l-0.193.214a6.877,6.877,0,0,0-1.153,1.536,1.093,1.093,0,0,0-.009.946c0.3,0.632,1.058.82,2.024,1.058l0.267,0.067c-0.111.148-.228,0.3-0.345,0.446a8.669,8.669,0,0,0-.988,1.449,1.084,1.084,0,0,0,.023,1.032,1.1,1.1,0,0,0,.535.468,4.174,4.174,0,0,0-1.231,1.372,1.1,1.1,0,0,0-.01.945c0.288,0.619,1.024.817,1.959,1.053l-0.241.153a4.261,4.261,0,0,0-1.718,1.616,1.106,1.106,0,0,0,0,.985,2.187,2.187,0,0,0,1.727.89c-0.085.133-.174,0.27-0.262,0.405a14.41,14.41,0,0,0-.867,1.444,1.109,1.109,0,0,0,.042,1.128,1.059,1.059,0,0,0,.573.432l-0.138.288c-0.235.488-.473,0.982-0.671,1.388a1.1,1.1,0,0,0,0,.973,1.873,1.873,0,0,0,1.467.831c-0.1.069-.193,0.138-0.291,0.206a4.36,4.36,0,0,0-1.552,1.53,1.113,1.113,0,0,0,.014,1.043,1.574,1.574,0,0,0,1.331.68c-0.066.267-.12,0.541-0.173,0.812a6.6,6.6,0,0,1-.409,1.5,1.112,1.112,0,0,0,.013,1.034,1.213,1.213,0,0,0,.722.568L31.537,112a4.146,4.146,0,0,0-1.462,1.446,1.091,1.091,0,0,0,0,.972,2.178,2.178,0,0,0,1.749.884l0.048,0.009-0.327.678c-0.241.5-.479,0.992-0.691,1.428a1.171,1.171,0,0,0-.122.6c-0.213-.04-0.414-0.081-0.579-0.114-1.519-.312-3.409-0.7-4.148.812a1.631,1.631,0,0,0-.172.842c-2.41-1.428-4.493-2.551-6.053-2.088a2.236,2.236,0,0,0-1.389,1.206c-0.032.066-.061,0.131-0.086,0.195a3.7,3.7,0,0,0-2.042-.145,2.385,2.385,0,0,0-1.559,1.321,2.607,2.607,0,0,0-.246.783c-0.089.015-.176,0.035-0.261,0.058a2.662,2.662,0,0,0-1.712,1.463,2.536,2.536,0,0,0-.275,1.088,2.89,2.89,0,0,0-.31.068,2.7,2.7,0,0,0-1.727,1.482,2.019,2.019,0,0,0-.028,1.886,2.675,2.675,0,0,0,1.021,1.034,2.259,2.259,0,0,0-.753.889,1.8,1.8,0,0,0-.022,1.7c0.683,1.277,2.87,1.573,5.4,1.916,1.227,0.166,3.47.47,3.936,0.892l-0.013.027a0.936,0.936,0,0,0,1.682.82,2.372,2.372,0,0,0,.152-0.4,5.06,5.06,0,0,0,3.3.465,2.474,2.474,0,0,0,1.521-1.331,3.116,3.116,0,0,0,.146-0.351,4.485,4.485,0,0,0,2.573.211,2.673,2.673,0,0,0,1.709-1.467,2.585,2.585,0,0,0,.275-1.03l0.065-.017a2.518,2.518,0,0,0,1.622-1.382,2.362,2.362,0,0,0,.255-1.012,2.961,2.961,0,0,0,1.32-1.39,1.954,1.954,0,0,0,.026-1.81,2.458,2.458,0,0,0-.728-0.839,2.721,2.721,0,0,0,.787-0.982,1.557,1.557,0,0,0,.012-1.437c-0.417-.793-1.474-1.126-2.8-1.366a2.179,2.179,0,0,0,2.292-1.1,1.117,1.117,0,0,0-.026-1.077,1.233,1.233,0,0,0-.9-0.564l0.228-.474c0.243-.5.488-1.012,0.712-1.471a1.1,1.1,0,0,0,0-.976,1.783,1.783,0,0,0-1.353-.806l0.03-.021a4.542,4.542,0,0,0,1.594-1.593,1.09,1.09,0,0,0-.013-1.015,1.533,1.533,0,0,0-1.28-.675c0.1-.358.169-0.719,0.234-1.056a5.887,5.887,0,0,1,.334-1.265,1.111,1.111,0,0,0-.015-1.041,1.207,1.207,0,0,0-.733-0.564l0.034-.024a4.666,4.666,0,0,0,1.65-1.639,1.1,1.1,0,0,0,0-.977,2.222,2.222,0,0,0-1.777-.9l-0.054-.01,0.286-.594c0.224-.465.445-0.925,0.627-1.3a1.09,1.09,0,0,0-.045-1.107,1.038,1.038,0,0,0-.49-0.4l0.18-.277A14.5,14.5,0,0,0,34,97.684a1.085,1.085,0,0,0,0-.965,1.791,1.791,0,0,0-1.4-.808l0.238-.152a4.2,4.2,0,0,0,1.692-1.587,1.067,1.067,0,0,0,.01-0.921c-0.283-.607-0.976-0.782-1.936-1.023l-0.161-.041,0.2-.159A4.211,4.211,0,0,0,33.9,90.665a1.113,1.113,0,0,0-.021-1.061,1.187,1.187,0,0,0-.766-0.554l0.149-.191a8.925,8.925,0,0,0,1.026-1.509,1.08,1.08,0,0,0,.01-0.937c-0.29-.621-1-0.8-1.984-1.038l-0.278-.069c0.114-.132.235-0.266,0.355-0.4a6.938,6.938,0,0,0,1.16-1.546,1.18,1.18,0,0,0,.119-0.66,26.182,26.182,0,0,1,3.275,1.426,28.015,28.015,0,0,0,3.266,1.439,1.426,1.426,0,0,0,.075.984c0.4,0.86,1.521,1.143,2.709,1.443a11.159,11.159,0,0,1,1.309.387,7.325,7.325,0,0,0-.327,1.635,4.825,4.825,0,0,1-.276,1.331,1.16,1.16,0,0,0,.009,1.073,1.92,1.92,0,0,0,1.588.787l-0.1.1A5.443,5.443,0,0,0,44.07,94.72a1.123,1.123,0,0,0,0,1.023,1.9,1.9,0,0,0,1.545.805l-0.2.2a5.679,5.679,0,0,0-1.188,1.463,1.087,1.087,0,0,0-.009.948,2.148,2.148,0,0,0,1.625.932l-0.134.071a3.757,3.757,0,0,0-1.8,1.545,1.051,1.051,0,0,0,0,.944,1.521,1.521,0,0,0,1.174.714c-0.083.135-.17,0.273-0.256,0.409a16.432,16.432,0,0,0-.841,1.436,1.028,1.028,0,0,0,.052,1.026l0.02,0.03c-0.106.108-.217,0.218-0.328,0.327a6.2,6.2,0,0,0-1.3,1.594,1.018,1.018,0,0,0-.01.875,1.4,1.4,0,0,0,.962.706c-0.081.138-.166,0.278-0.252,0.422-0.309.516-.63,1.05-0.884,1.571a0.99,0.99,0,0,0,.143,1.14,1.9,1.9,0,0,0,.946.328,0.935,0.935,0,0,0,.842-0.526,1.035,1.035,0,0,0,.082-0.742c0.152-.267.315-0.54,0.476-0.808,0.291-.484.591-0.985,0.815-1.445a1.062,1.062,0,0,0,.01-0.858,1.243,1.243,0,0,0-.8-0.639c0.094-.094.191-0.19,0.287-0.284a6.14,6.14,0,0,0,1.289-1.576,1.035,1.035,0,0,0-.163-1.192c0.08-.129.162-0.259,0.243-0.387a16.381,16.381,0,0,0,.84-1.434,1.073,1.073,0,0,0,0-.962,1.2,1.2,0,0,0-.644-0.569,3.77,3.77,0,0,0,1.808-1.556A1.074,1.074,0,0,0,48.422,99.315ZM37.362,78.458a5.669,5.669,0,0,1-1.019-.286A8.035,8.035,0,0,1,37.362,78.458ZM29.54,119.683c-0.275-.045-0.56-0.1-0.825-0.149C29,119.576,29.289,119.633,29.54,119.683Zm-9.469-.193a0.361,0.361,0,0,1,.241-0.233c0.91-.276,3.312,1.156,5.239,2.306l0.141,0.084c-1.194-.217-2.513-0.476-3.584-0.782-0.728-.476-1.426-0.9-2.087-1.254A0.991,0.991,0,0,1,20.071,119.49Zm-3.687,1.371a0.521,0.521,0,0,1,.351-0.331,3.048,3.048,0,0,1,1.8.428,5.3,5.3,0,0,0,2.777,1.626c0.368,0.242.737,0.49,1.1,0.739-0.694-.134-1.4-0.278-2.082-0.433a16.654,16.654,0,0,0-3.993-1.914A1.044,1.044,0,0,1,16.384,120.861Zm-2.219,2.3a0.778,0.778,0,0,1,.522-0.478,1.4,1.4,0,0,1,.365-0.044c0.847,0.927,2.5,1.519,4.563,2.007,0.608,0.376,1.224.774,1.822,1.168-1.355-.236-2.889-0.51-4.207-0.836a14.511,14.511,0,0,0-3.11-1.382l-0.01-.018A0.419,0.419,0,0,1,14.165,123.165Zm-2.089,6.486c0-.011.01-0.024,0.018-0.039a0.316,0.316,0,0,1,.212-0.2c0.585-.185,1.853.371,3.175,1.071A10.125,10.125,0,0,1,12.076,129.651ZM11.8,126.007a0.324,0.324,0,0,1,.049-0.2,0.814,0.814,0,0,1,.544-0.5,1.418,1.418,0,0,1,.382-0.048,2.409,2.409,0,0,1,.378.032,9.015,9.015,0,0,0,3.369,1.449c0.562,0.322,1.138.675,1.71,1.036l-0.086-.014C15.788,127.379,12.216,126.8,11.8,126.007Zm12.888,6.059a0.6,0.6,0,0,1-.384.362c-1.09.329-3.7-1.175-5.789-2.386-0.266-.154-0.529-0.306-0.787-0.454l0.121,0.019c1.417,0.228,3.238.523,4.661,0.906,0.782,0.481,1.543.92,2.269,1.284A0.878,0.878,0,0,1,24.692,132.066Zm4.427-1.607a0.788,0.788,0,0,1-.527.484,4.053,4.053,0,0,1-2.4-.544,5.624,5.624,0,0,0-2.931-1.627c-0.538-.333-1.077-0.678-1.6-1.016,1.26,0.219,2.692.471,3.968,0.767a14.331,14.331,0,0,0,3.578,1.654A0.736,0.736,0,0,1,29.119,130.459Zm1.53-2.032a1.189,1.189,0,0,1-.359.04,9.077,9.077,0,0,0-3.945-1.7c-0.6-.361-1.208-0.751-1.807-1.142,0.578,0.108,1.189.226,1.8,0.353a13.17,13.17,0,0,0,4.709,2.122A0.614,0.614,0,0,1,30.649,128.427Zm2.007-2.8a1.119,1.119,0,0,1-.445.521c-1.009-.9-2.883-1.459-5.158-1.941-0.291-.187-0.583-0.379-0.875-0.574l0.241,0.043c1.967,0.346,6.061,1.066,6.281,1.817A0.338,0.338,0,0,1,32.656,125.629Zm-0.033-3.437a0.6,0.6,0,0,1-.32.22c-0.64.2-1.772-.237-3.01-0.872,0.24,0.038.488,0.076,0.743,0.113A14.129,14.129,0,0,1,32.622,122.191ZM37.71,82.418c1.786,0.347,4.305.884,4.676,1.429a0.022,0.022,0,0,0-.013.016A0.216,0.216,0,0,1,42.23,84c-0.752.258-2.9-.789-4.462-1.554Z" transform="translate(-9.925 -64.537)"/><path d="M71.145,85.8V75.764l-3.638,7.3H65.428l-3.638-7.3V85.8H57.916V69.032h4.2L66.467,77.8l4.37-8.765h4.181V85.8H71.145Z" transform="translate(-9.925 -64.537)"/><path d="M85.909,82.5a3.186,3.186,0,0,0,1.677-.413,3.284,3.284,0,0,0,1.11-1.1,4.7,4.7,0,0,0,.6-1.571,9.167,9.167,0,0,0,.177-1.807V69.032H93.35v8.576a11.706,11.706,0,0,1-.437,3.259,7.53,7.53,0,0,1-1.347,2.646A6.308,6.308,0,0,1,89.252,85.3a7.9,7.9,0,0,1-3.343.65,7.807,7.807,0,0,1-3.425-.685,6.336,6.336,0,0,1-2.3-1.831,7.533,7.533,0,0,1-1.3-2.657,11.947,11.947,0,0,1-.413-3.165V69.032h3.874v8.576a8.68,8.68,0,0,0,.189,1.843,4.892,4.892,0,0,0,.614,1.559A3.036,3.036,0,0,0,85.909,82.5Z" transform="translate(-9.925 -64.537)"/><path d="M106.887,73.945a2.4,2.4,0,0,0-.5-0.355,9.339,9.339,0,0,0-1.063-.543,10.291,10.291,0,0,0-1.393-.5,5.579,5.579,0,0,0-1.512-.212q-2.079,0-2.079,1.394a1.1,1.1,0,0,0,.225.708,1.969,1.969,0,0,0,.661.508,6.054,6.054,0,0,0,1.1.413q0.66,0.189,1.535.425a20.211,20.211,0,0,1,2.173.721,5.832,5.832,0,0,1,1.642.969,3.921,3.921,0,0,1,1.039,1.405,4.881,4.881,0,0,1,.366,1.984,4.97,4.97,0,0,1-.531,2.4,4.482,4.482,0,0,1-1.405,1.583,5.934,5.934,0,0,1-2.008.874,10.011,10.011,0,0,1-2.339.271,13.1,13.1,0,0,1-1.89-.141,13.732,13.732,0,0,1-1.89-.413,14.983,14.983,0,0,1-1.784-.65,9.957,9.957,0,0,1-1.595-.874l1.7-3.378a3.286,3.286,0,0,0,.614.449,9.048,9.048,0,0,0,1.287.661,13.038,13.038,0,0,0,1.713.591,7.162,7.162,0,0,0,1.913.26q2.055,0,2.056-1.252a1.056,1.056,0,0,0-.307-0.78,2.9,2.9,0,0,0-.851-0.555,9.215,9.215,0,0,0-1.288-.46q-0.744-.213-1.618-0.473a13.988,13.988,0,0,1-2.008-.767,5.3,5.3,0,0,1-1.405-.957A3.473,3.473,0,0,1,96.622,76a4.613,4.613,0,0,1-.271-1.654,5.266,5.266,0,0,1,.5-2.339A5.056,5.056,0,0,1,98.193,70.3a5.863,5.863,0,0,1,1.972-1.051,7.838,7.838,0,0,1,2.374-.355,9.043,9.043,0,0,1,1.724.165,13.067,13.067,0,0,1,1.63.426,11.709,11.709,0,0,1,1.453.591q0.674,0.331,1.24.661Z" transform="translate(-9.925 -64.537)"/><path d="M111.823,85.8V69.032H115.7V85.8h-3.874Z" transform="translate(-9.925 -64.537)"/><path d="M118.414,77.277a8.464,8.464,0,0,1,.567-3.012,8.209,8.209,0,0,1,1.653-2.681,8.4,8.4,0,0,1,2.646-1.914,8.243,8.243,0,0,1,3.544-.732,7.977,7.977,0,0,1,4.1,1.016,6.57,6.57,0,0,1,2.586,2.646l-2.977,2.079a3.465,3.465,0,0,0-.72-1.1,3.937,3.937,0,0,0-2.02-1.087,5.521,5.521,0,0,0-1.063-.106,4,4,0,0,0-1.937.449,4.263,4.263,0,0,0-1.37,1.158,4.8,4.8,0,0,0-.8,1.606,6.5,6.5,0,0,0-.26,1.819,6,6,0,0,0,.307,1.914,5.088,5.088,0,0,0,.886,1.63,4.271,4.271,0,0,0,1.394,1.122,3.98,3.98,0,0,0,1.83.413,4.7,4.7,0,0,0,1.075-.13,4.342,4.342,0,0,0,1.063-.4,3.778,3.778,0,0,0,.933-0.709,3.3,3.3,0,0,0,.685-1.075l3.166,1.866a4.931,4.931,0,0,1-1.123,1.654,6.92,6.92,0,0,1-1.713,1.228,9.4,9.4,0,0,1-4.181,1.016,7.513,7.513,0,0,1-3.343-.744,8.454,8.454,0,0,1-2.622-1.972,9.013,9.013,0,0,1-1.7-2.788A8.711,8.711,0,0,1,118.414,77.277Z" transform="translate(-9.925 -64.537)"/><path d="M140.431,69.032h3.5L150.046,85.8h-3.969l-1.3-3.756h-5.221L138.281,85.8h-3.969Zm3.709,10.347-1.96-5.929-2.008,5.929h3.969Z" transform="translate(-9.925 -64.537)"/><path d="M152.172,85.8V69.032h3.874V82.4h8.126v3.4h-12Z" transform="translate(-9.925 -64.537)"/><path d="M166.463,85.8V69.032h3.874V82.4h8.126v3.4h-12Z" transform="translate(-9.925 -64.537)"/><path d="M180.5,69.032l3.615,7.7,3.661-7.7H192l-5.976,11.056V85.8h-3.851V80.04l-5.882-11.008h4.2Z" transform="translate(-9.925 -64.537)"/><path d="M57.916,112.537V94.119H62.17v18.418H57.916Z" transform="translate(-9.925 -64.537)"/><path d="M72.027,102.005v10.532H67.773V94.119h3.321l8.586,10.818V94.119h4.254v18.418H80.51Z" transform="translate(-9.925 -64.537)"/><path d="M88.473,103.173a9.294,9.294,0,0,1,.623-3.308,9.014,9.014,0,0,1,1.815-2.944,9.221,9.221,0,0,1,2.905-2.1,9.052,9.052,0,0,1,3.891-.8,8.76,8.76,0,0,1,4.5,1.115,7.214,7.214,0,0,1,2.84,2.905l-3.269,2.283a3.8,3.8,0,0,0-.791-1.206,4.323,4.323,0,0,0-2.218-1.193A6.063,6.063,0,0,0,97.6,97.8a4.4,4.4,0,0,0-2.127.493,4.681,4.681,0,0,0-1.5,1.271,5.272,5.272,0,0,0-.882,1.764,7.136,7.136,0,0,0-.285,2,6.586,6.586,0,0,0,.337,2.1,5.587,5.587,0,0,0,.973,1.79,4.69,4.69,0,0,0,1.531,1.232,4.371,4.371,0,0,0,2.01.454,5.165,5.165,0,0,0,1.181-.143,4.768,4.768,0,0,0,1.167-.441,4.149,4.149,0,0,0,1.025-.779,3.626,3.626,0,0,0,.752-1.18l3.477,2.049a5.415,5.415,0,0,1-1.233,1.816,7.6,7.6,0,0,1-1.881,1.349,10.326,10.326,0,0,1-4.591,1.115,8.25,8.25,0,0,1-3.671-.817A9.283,9.283,0,0,1,91,109.71a9.9,9.9,0,0,1-1.868-3.061A9.565,9.565,0,0,1,88.473,103.173Z" transform="translate(-9.925 -64.537)"/><path d="M109.459,112.537V94.119h4.255V108.8h8.923v3.735H109.459Z" transform="translate(-9.925 -64.537)"/><path d="M126.709,112.537V94.119h4.255v18.418h-4.255Z" transform="translate(-9.925 -64.537)"/><path d="M140.82,102.005v10.532h-4.255V94.119h3.321l8.586,10.818V94.119h4.254v18.418H149.3Z" transform="translate(-9.925 -64.537)"/><path d="M171.273,108.8v3.735H158.329V94.119H171.04v3.736h-8.456v3.58h7.263v3.45h-7.263V108.8h8.69Z" transform="translate(-9.925 -64.537)"/><path d="M175.943,112.537V94.119h6.874a10.172,10.172,0,0,1,3.995.727,8.033,8.033,0,0,1,4.6,4.89A10.747,10.747,0,0,1,192,103.3a10.593,10.593,0,0,1-.649,3.8,8.174,8.174,0,0,1-1.855,2.905,8.334,8.334,0,0,1-2.906,1.868,10.33,10.33,0,0,1-3.774.661h-6.874Zm11.725-9.235a7.163,7.163,0,0,0-.324-2.218,4.993,4.993,0,0,0-.947-1.725,4.143,4.143,0,0,0-1.531-1.116,5.16,5.16,0,0,0-2.049-.389H180.2V108.8h2.62a4.944,4.944,0,0,0,2.075-.415,4.2,4.2,0,0,0,1.517-1.155,5.259,5.259,0,0,0,.934-1.738A7.066,7.066,0,0,0,187.668,103.3Z" transform="translate(-9.925 -64.537)"/><path class="cls-2" d="M66.96,130.2v-7.341L64.1,128.323H62.93l-2.858-5.467V130.2H57.916v-11.09h2.312l3.28,6.311,3.311-6.311h2.3V130.2H66.96Z" transform="translate(-9.925 -64.537)"/><path class="cls-2" d="M77.051,128.37a2.475,2.475,0,0,0,1.289-.312,2.525,2.525,0,0,0,.844-0.813,3.365,3.365,0,0,0,.453-1.148,6.672,6.672,0,0,0,.133-1.335v-5.655h2.14v5.655a8.094,8.094,0,0,1-.273,2.14,4.91,4.91,0,0,1-.86,1.75,4.115,4.115,0,0,1-1.507,1.187,5.1,5.1,0,0,1-2.2.437,5.045,5.045,0,0,1-2.257-.461A4.211,4.211,0,0,1,73.3,128.6a4.862,4.862,0,0,1-.836-1.757,8.284,8.284,0,0,1-.258-2.078v-5.655h2.156v5.655a6.71,6.71,0,0,0,.133,1.351,3.353,3.353,0,0,0,.453,1.148A2.35,2.35,0,0,0,77.051,128.37Z" transform="translate(-9.925 -64.537)"/><path class="cls-2" d="M91.625,122.013a2.679,2.679,0,0,0-.4-0.3,4.834,4.834,0,0,0-.7-0.367,6.129,6.129,0,0,0-.9-0.305,3.92,3.92,0,0,0-.984-0.125,2.209,2.209,0,0,0-1.328.328,1.086,1.086,0,0,0-.438.922,0.948,0.948,0,0,0,.164.57,1.41,1.41,0,0,0,.476.4,3.985,3.985,0,0,0,.789.312q0.476,0.141,1.1.3,0.811,0.219,1.476.469a3.99,3.99,0,0,1,1.125.625,2.577,2.577,0,0,1,.711.9,2.978,2.978,0,0,1,.25,1.288,3.207,3.207,0,0,1-.336,1.523,2.819,2.819,0,0,1-.906,1.023,3.933,3.933,0,0,1-1.312.57,6.59,6.59,0,0,1-1.554.18,8.348,8.348,0,0,1-2.468-.375,7.618,7.618,0,0,1-2.187-1.062l0.953-1.859a2.994,2.994,0,0,0,.507.367,7.706,7.706,0,0,0,.867.453,6.686,6.686,0,0,0,1.109.383,5,5,0,0,0,1.25.157q1.78,0,1.781-1.141a0.937,0.937,0,0,0-.2-0.609,1.724,1.724,0,0,0-.578-0.438,5.516,5.516,0,0,0-.906-0.343q-0.532-.157-1.187-0.344a10.137,10.137,0,0,1-1.382-.476,3.617,3.617,0,0,1-.976-0.61,2.269,2.269,0,0,1-.586-0.812,2.8,2.8,0,0,1-.2-1.1,3.449,3.449,0,0,1,.312-1.5,3.04,3.04,0,0,1,.867-1.094,3.933,3.933,0,0,1,1.288-.664,5.333,5.333,0,0,1,1.578-.226,6.127,6.127,0,0,1,2.156.367,8.02,8.02,0,0,1,1.718.867Z" transform="translate(-9.925 -64.537)"/><path class="cls-2" d="M95.529,130.2v-11.09h2.156V130.2H95.529Z" transform="translate(-9.925 -64.537)"/><path class="cls-2" d="M100.262,124.574a5.749,5.749,0,0,1,.367-2.007,5.383,5.383,0,0,1,2.788-3.038,5.31,5.31,0,0,1,2.312-.485,5.044,5.044,0,0,1,2.648.672,4.3,4.3,0,0,1,1.663,1.75l-1.656,1.141a2.848,2.848,0,0,0-.531-0.789,2.681,2.681,0,0,0-.672-0.507,3.037,3.037,0,0,0-.75-0.273,3.582,3.582,0,0,0-.766-0.086,2.9,2.9,0,0,0-1.413.328,3.094,3.094,0,0,0-1,.851,3.744,3.744,0,0,0-.6,1.187,4.49,4.49,0,0,0-.2,1.32,4.308,4.308,0,0,0,.234,1.413,3.753,3.753,0,0,0,.664,1.2,3.313,3.313,0,0,0,1.031.828,2.819,2.819,0,0,0,1.319.313,3.5,3.5,0,0,0,.781-0.094,2.986,2.986,0,0,0,.773-0.3,2.942,2.942,0,0,0,.679-0.523,2.408,2.408,0,0,0,.5-0.773l1.765,1.016a3.334,3.334,0,0,1-.757,1.1,4.884,4.884,0,0,1-1.109.8,5.659,5.659,0,0,1-1.32.5,5.787,5.787,0,0,1-1.375.172,4.725,4.725,0,0,1-2.171-.5,5.65,5.65,0,0,1-1.694-1.3,6.057,6.057,0,0,1-1.109-1.828A5.712,5.712,0,0,1,100.262,124.574Z" transform="translate(-9.925 -64.537)"/><path class="cls-2" d="M117.273,130.2v-11.09h2.156v9.2h5.655v1.89h-7.81Z" transform="translate(-9.925 -64.537)"/><path class="cls-2" d="M135.033,128.307v1.89h-7.7v-11.09h7.56V121h-5.4v2.671h4.671v1.75h-4.671v2.89h5.545Z" transform="translate(-9.925 -64.537)"/><path class="cls-2" d="M144.031,122.013a2.679,2.679,0,0,0-.4-0.3,4.834,4.834,0,0,0-.7-0.367,6.129,6.129,0,0,0-.9-0.305,3.92,3.92,0,0,0-.984-0.125,2.209,2.209,0,0,0-1.328.328,1.086,1.086,0,0,0-.438.922,0.948,0.948,0,0,0,.164.57,1.41,1.41,0,0,0,.476.4,3.985,3.985,0,0,0,.789.312q0.476,0.141,1.1.3,0.811,0.219,1.476.469a3.99,3.99,0,0,1,1.125.625,2.577,2.577,0,0,1,.711.9,2.978,2.978,0,0,1,.25,1.288,3.207,3.207,0,0,1-.336,1.523,2.819,2.819,0,0,1-.906,1.023,3.933,3.933,0,0,1-1.312.57,6.59,6.59,0,0,1-1.554.18,8.348,8.348,0,0,1-2.468-.375,7.618,7.618,0,0,1-2.187-1.062l0.953-1.859a2.994,2.994,0,0,0,.507.367,7.706,7.706,0,0,0,.867.453,6.686,6.686,0,0,0,1.109.383,5,5,0,0,0,1.25.157q1.78,0,1.781-1.141a0.937,0.937,0,0,0-.2-0.609,1.724,1.724,0,0,0-.578-0.438,5.516,5.516,0,0,0-.906-0.343q-0.532-.157-1.187-0.344a10.137,10.137,0,0,1-1.382-.476,3.617,3.617,0,0,1-.976-0.61,2.269,2.269,0,0,1-.586-0.812,2.8,2.8,0,0,1-.2-1.1,3.449,3.449,0,0,1,.312-1.5,3.04,3.04,0,0,1,.867-1.094,3.933,3.933,0,0,1,1.288-.664,5.333,5.333,0,0,1,1.578-.226,6.127,6.127,0,0,1,2.156.367,8.02,8.02,0,0,1,1.718.867Z" transform="translate(-9.925 -64.537)"/><path class="cls-2" d="M154.543,122.013a2.679,2.679,0,0,0-.4-0.3,4.834,4.834,0,0,0-.7-0.367,6.129,6.129,0,0,0-.9-0.305,3.92,3.92,0,0,0-.984-0.125,2.209,2.209,0,0,0-1.328.328,1.086,1.086,0,0,0-.438.922,0.948,0.948,0,0,0,.164.57,1.41,1.41,0,0,0,.476.4,3.985,3.985,0,0,0,.789.312q0.476,0.141,1.1.3,0.811,0.219,1.476.469a3.99,3.99,0,0,1,1.125.625,2.577,2.577,0,0,1,.711.9,2.978,2.978,0,0,1,.25,1.288,3.207,3.207,0,0,1-.336,1.523,2.819,2.819,0,0,1-.906,1.023,3.933,3.933,0,0,1-1.312.57,6.59,6.59,0,0,1-1.554.18,8.348,8.348,0,0,1-2.468-.375,7.618,7.618,0,0,1-2.187-1.062l0.953-1.859a2.994,2.994,0,0,0,.507.367,7.706,7.706,0,0,0,.867.453,6.686,6.686,0,0,0,1.109.383,5,5,0,0,0,1.25.157q1.78,0,1.781-1.141a0.937,0.937,0,0,0-.2-0.609,1.724,1.724,0,0,0-.578-0.438,5.516,5.516,0,0,0-.906-0.343q-0.532-.157-1.187-0.344a10.137,10.137,0,0,1-1.382-.476,3.617,3.617,0,0,1-.976-0.61,2.269,2.269,0,0,1-.586-0.812,2.8,2.8,0,0,1-.2-1.1,3.449,3.449,0,0,1,.312-1.5,3.04,3.04,0,0,1,.867-1.094,3.933,3.933,0,0,1,1.288-.664,5.333,5.333,0,0,1,1.578-.226,6.127,6.127,0,0,1,2.156.367,8.02,8.02,0,0,1,1.718.867Z" transform="translate(-9.925 -64.537)"/><path class="cls-2" d="M163.18,130.276a5.034,5.034,0,0,1-2.21-.476,5.424,5.424,0,0,1-1.7-1.265,5.872,5.872,0,0,1-1.492-3.882,5.566,5.566,0,0,1,.414-2.124,5.864,5.864,0,0,1,1.14-1.8,5.453,5.453,0,0,1,1.726-1.242,5.13,5.13,0,0,1,2.171-.461,4.872,4.872,0,0,1,2.195.492,5.487,5.487,0,0,1,1.694,1.289,5.936,5.936,0,0,1,1.094,1.812,5.7,5.7,0,0,1,.391,2.062,5.613,5.613,0,0,1-.406,2.116,5.751,5.751,0,0,1-1.125,1.781,5.413,5.413,0,0,1-1.718,1.234A5.13,5.13,0,0,1,163.18,130.276Zm-3.217-5.624a4.47,4.47,0,0,0,.218,1.39,3.706,3.706,0,0,0,.633,1.187,3.144,3.144,0,0,0,1.015.828,3.146,3.146,0,0,0,2.749-.008,3.145,3.145,0,0,0,1.016-.851,3.8,3.8,0,0,0,.625-1.2,4.445,4.445,0,0,0,.211-1.351,4.326,4.326,0,0,0-.226-1.39,3.841,3.841,0,0,0-.641-1.187,3.054,3.054,0,0,0-1.015-.82,3.167,3.167,0,0,0-2.742.015,3.085,3.085,0,0,0-1.015.844,3.787,3.787,0,0,0-.617,1.187A4.447,4.447,0,0,0,159.963,124.652Z" transform="translate(-9.925 -64.537)"/><path class="cls-2" d="M173.349,123.09V130.2h-2.156v-11.09h1.672l5.78,7.279v-7.263H180.8V130.2h-1.75Z" transform="translate(-9.925 -64.537)"/><path class="cls-2" d="M190.656,122.013a2.679,2.679,0,0,0-.4-0.3,4.834,4.834,0,0,0-.7-0.367,6.129,6.129,0,0,0-.9-0.305,3.92,3.92,0,0,0-.984-0.125,2.209,2.209,0,0,0-1.328.328,1.086,1.086,0,0,0-.438.922,0.948,0.948,0,0,0,.164.57,1.41,1.41,0,0,0,.476.4,3.985,3.985,0,0,0,.789.312q0.476,0.141,1.1.3,0.811,0.219,1.476.469a3.99,3.99,0,0,1,1.125.625,2.577,2.577,0,0,1,.711.9,2.978,2.978,0,0,1,.25,1.288,3.207,3.207,0,0,1-.336,1.523,2.819,2.819,0,0,1-.906,1.023,3.933,3.933,0,0,1-1.312.57,6.59,6.59,0,0,1-1.554.18,8.348,8.348,0,0,1-2.468-.375,7.618,7.618,0,0,1-2.187-1.062l0.953-1.859a2.994,2.994,0,0,0,.507.367,7.706,7.706,0,0,0,.867.453,6.686,6.686,0,0,0,1.109.383,5,5,0,0,0,1.25.157q1.78,0,1.781-1.141a0.937,0.937,0,0,0-.2-0.609,1.724,1.724,0,0,0-.578-0.438,5.516,5.516,0,0,0-.906-0.343q-0.532-.157-1.187-0.344a10.137,10.137,0,0,1-1.382-.476,3.617,3.617,0,0,1-.976-0.61,2.269,2.269,0,0,1-.586-0.812,2.8,2.8,0,0,1-.2-1.1,3.449,3.449,0,0,1,.312-1.5,3.04,3.04,0,0,1,.867-1.094,3.933,3.933,0,0,1,1.288-.664,5.333,5.333,0,0,1,1.578-.226,6.127,6.127,0,0,1,2.156.367,8.02,8.02,0,0,1,1.718.867Z" transform="translate(-9.925 -64.537)"/></svg>